<svg width="16" height="16" fill="none" xmlns="http://www.w3.org/2000/svg"><path d="M14.783 8.161c0-.476-.038-.954-.12-1.422H8.139v2.695h3.737a3.242 3.242 0 01-1.383 2.127v1.75h2.23c1.309-1.22 2.061-3.02 2.061-5.15z" fill="#4285F4"/><path d="M8.138 15c1.866 0 3.44-.62 4.586-1.69l-2.23-1.749c-.62.427-1.42.669-2.353.669-1.805 0-3.335-1.232-3.885-2.888h-2.3v1.803A6.911 6.911 0 008.138 15z" fill="#34A853"/><path d="M4.254 9.342a4.24 4.24 0 010-2.68V4.858H1.956a7.08 7.08 0 000 6.286l2.298-1.803z" fill="#FBBC04"/><path d="M8.138 3.77c.987-.015 1.94.36 2.654 1.05l1.976-1.999a6.607 6.607 0 00-4.63-1.82 6.909 6.909 0 00-6.182 3.858l2.298 1.803C4.8 5.002 6.334 3.77 8.138 3.77z" fill="#EA4335"/></svg>